<?xml version="1.0" encoding="utf-8"?>
<svg version="1.1" id="Layer_1" xmlns="http://www.w3.org/2000/svg" xmlns:xlink="http://www.w3.org/1999/xlink" x="0px" y="0px"
	 viewBox="0 0 720 720" style="enable-background:new 0 0 720 720;" xml:space="preserve">
<path d="M359.93,274.99c4.12-16.04,12.95-28.05,20.74-40.66c6.25-10.12,15.92-15.71,26.34-19.67c15.83-6.01,27.42-2.24,36.88,11.71
	c11.58,17.07,17.16,35.38,14.95,56.82c-3.35,32.56-16.35,61.67-29.36,90.71c-11.53,25.74-25.79,50.25-38.25,75.59
	c-7.22,14.68-19.01,25.98-27.58,41.68c-20.32-19.85-37.88-39.79-48.42-65.42c-5.23-12.72-11.9-24.74-20.8-35.64
	c-18.13-22.22-29.67-47.83-36.2-75.75c-2.88-12.32-5.86-24.63-9.34-36.8c-4.53-15.86-1.84-31.26,3.54-46.01
	c7.74-21.25,36.16-30.68,56.02-19.18c19.39,11.23,31.11,29.29,41.27,48.43C352.08,265.2,351.87,270.98,359.93,274.99z
	 M361.15,455.06c2.69-3.57,4.75-5.71,6.12-8.23c8.82-16.31,17.22-32.84,26.25-49.03c16.3-29.22,32.05-58.8,41.85-90.84
	c5.86-19.15,9.33-39.16,0.71-59.05c-9.58-22.11-25.77-25.13-40.19-5.72c-11.04,14.86-19.94,31.37-21.4,50.74
	c-0.73,9.75,3.5,23.85-10.98,25.36c-11.67,1.21-13.43-11.74-16.94-20.55c-9.42-23.63-20.16-46.39-39.18-64.27
	c-7.86-7.39-16.77-10.44-26.5-6.75c-10,3.79-13.81,12.27-13.87,23.21c-0.18,29.56,7.79,57.4,18.62,84.24
	C303.3,377.96,328.95,417.11,361.15,455.06z"/>
</svg>
